<svg xmlns="http://www.w3.org/2000/svg" viewBox="0 0 1024 768">
<g transform="matrix(1.7315 0 0 1.7315 512 384)">
<g transform="matrix(1.3889 0 0 1.3889 -197.4 -10.8125)">
<path fill="rgb(0,0,0)" transform="translate(-100,-95.6937)" d="M 101.8 71.5827 C 111.376 71.5827 114.544 80.1507 113.896 83.2467 C 113.896 83.2467 120.376 83.1027 120.376 78.0627 C 120.376 73.0227 109.936 70.1427 101.8 70.1427 C 89.776 70.1427 79.984 79.2867 79.624 90.8067 L 86.68 90.8067 C 87.04 80.8707 93.664 71.5827 101.8 71.5827 Z M 79.624 92.0307 C 79.984 103.6227 90.568 112.9107 102.664 112.9107 C 112.6 112.9107 117.784 109.1667 120.376 107.0787 L 119.656 105.6387 C 116.992 107.8707 111.808 111.4707 102.664 111.4707 C 95.392 111.4707 88.696 104.1267 87.112 95.4867 C 86.68 93.4707 84.952 92.0307 83.008 92.0307 Z M 88.984 120.3267 C 91.216 119.6067 93.232 119.1747 95.176 119.1747 C 96.184 119.1747 97.12 119.2467 98.056 119.3907 C 98.992 119.5347 99.928 119.8227 100.936 120.1107 L 102.52 120.5427 C 103.024 120.6867 103.6 120.8307 104.176 120.9027 C 104.752 121.0467 105.328 121.1187 105.904 121.1907 C 106.552 121.2627 107.2 121.2627 107.848 121.1907 C 109.072 121.0467 110.296 120.7587 111.448 120.1107 C 112.528 119.5347 113.464 118.5267 113.824 117.3747 C 112.744 117.9507 111.808 118.2387 110.8 118.3107 C 109.864 118.3827 108.856 118.3107 107.92 118.1667 C 106.12 117.8067 104.176 116.9427 101.944 116.3667 L 100.216 115.9347 C 99.64 115.8627 99.064 115.7187 98.416 115.7187 C 97.12 115.6467 95.896 115.7907 94.672 116.1507 C 92.296 116.8707 90.208 118.3107 88.984 120.3267 Z"/>
<g transform="matrix(1.3889 0 0 1.3889 -132.6 -0.4)">
<path fill="rgb(0,0,0)" transform="translate(-100,-103.1907)" d="M 100 84.7587 C 89.416 84.7587 80.848 93.0387 80.848 103.1907 C 80.848 113.4147 89.416 121.6227 100 121.6227 C 110.584 121.6227 119.152 113.4147 119.152 103.1907 C 119.152 93.0387 110.584 84.7587 100 84.7587 Z M 88.696 103.1907 C 88.696 93.9747 93.736 86.4867 100 86.4867 C 106.264 86.4867 111.304 93.9747 111.304 103.1907 C 111.304 112.4067 106.264 119.8947 100 119.8947 C 93.736 119.8947 88.696 112.4067 88.696 103.1907 Z"/>
</g>
<g transform="matrix(1.3889 0 0 1.3889 -55.1 -0.8)">
<path fill="rgb(0,0,0)" transform="translate(-98.272,-102.9027)" d="M 118.72 84.7587 C 111.592 84.7587 106.768 90.6627 104.968 93.3267 C 103.96 89.7987 101.224 84.7587 93.376 84.7587 C 86.68 84.7587 82.072 89.9427 79.984 92.8227 L 79.984 85.3347 L 65.728 85.3347 L 65.728 85.6947 C 69.328 85.6947 72.208 88.5747 72.208 92.1747 L 72.208 121.0467 L 79.984 121.0467 L 79.984 94.9107 C 82 91.6707 86.968 86.4867 90.568 86.4867 C 93.52 86.4867 97.696 89.2227 97.696 96.7827 L 97.696 121.0467 L 105.472 121.0467 L 105.472 96.7827 C 105.472 96.7827 105.472 96.0627 105.328 94.9107 C 107.272 91.7427 112.24 86.4867 115.84 86.4867 C 118.792 86.4867 122.968 89.2227 122.968 96.7827 L 122.968 121.0467 L 130.816 121.0467 L 130.816 96.7827 C 130.816 96.7827 130.816 84.7587 118.72 84.7587 Z"/>
</g>
<g transform="matrix(1.3889 0 0 1.3889 28.25 10.15)">
<path fill="rgb(0,0,0)" transform="translate(-98.92,-110.7867)" d="M 104.212 84.7587 C 99.532 84.7587 95.572 88.6467 92.98 92.8947 L 92.98 85.3347 L 78.724 85.3347 L 78.724 85.6947 C 82.324 85.6947 85.204 88.5747 85.204 92.1747 L 85.204 136.8147 L 92.98 136.8147 L 92.98 118.5987 C 95.284 120.3987 98.308 121.6227 102.268 121.6227 C 111.052 121.6227 119.116 113.4147 119.116 103.1907 C 119.116 93.0387 112.924 84.7587 104.212 84.7587 Z M 92.98 116.4387 L 92.98 94.9827 C 95.14 91.8147 98.164 87.8547 101.908 87.8547 C 108.1 87.8547 111.772 94.4787 111.772 104.1987 C 111.772 114.2787 107.596 119.8947 101.404 119.8947 C 97.804 119.8947 94.996 118.5987 92.98 116.4387 Z"/>
</g>
<g transform="matrix(1.3889 0 0 1.3889 83.25 -0.8)">
<path fill="rgb(0,0,0)" transform="translate(-99.568,-102.9027)" d="M 107.596 84.7587 C 102.916 84.7587 100.036 87.3507 98.812 90.0147 L 98.812 85.3347 L 84.556 85.3347 L 84.556 85.6947 C 88.156 85.6947 91.036 88.5747 91.036 92.1747 L 91.036 121.0467 L 98.812 121.0467 L 98.812 93.7587 C 98.956 92.8227 100.036 87.2787 104.284 87.2787 C 107.668 87.2787 111.052 92.6067 107.452 97.7907 C 107.452 97.7907 114.58 97.7907 114.58 91.3107 C 114.58 84.9027 107.596 84.7587 107.596 84.7587 Z"/>
</g>
<g transform="matrix(1.3889 0 0 1.3889 121.3 -10.95)">
<path fill="rgb(0,0,0)" transform="translate(-98.668,-95.5947)" d="M 101.332 80.1507 C 104.14 80.1507 106.372 77.9187 106.372 75.1827 C 106.372 72.3747 104.14 70.1427 101.332 70.1427 C 98.596 70.1427 96.292 72.3747 96.292 75.1827 C 96.292 77.9187 98.596 80.1507 101.332 80.1507 Z M 90.964 85.6947 C 94.564 85.6947 97.444 88.5747 97.444 92.1747 L 97.444 121.0467 L 105.22 121.0467 L 105.22 85.3347 L 90.964 85.3347 Z"/>
</g>
<g transform="matrix(1.3889 0 0 1.3889 154.95 -10.15)">
<path fill="rgb(0,0,0)" transform="translate(-98.38,-96.1707)" d="M 111.52 119.1747 L 110.8 118.2387 C 109.648 119.2467 108.064 119.8947 106.336 119.8947 C 102.592 119.8947 99.496 116.7987 99.496 113.0547 L 99.496 86.7747 L 106.768 86.7747 L 106.768 85.3347 L 99.496 85.3347 L 99.496 70.7187 L 85.24 70.7187 L 85.24 71.0787 C 88.84 71.0787 91.72 73.9587 91.72 77.4867 L 91.72 109.1667 C 91.72 116.0787 97.264 121.6227 104.176 121.6227 C 106.912 121.6227 109.504 120.7587 111.52 119.1747 Z"/>
</g>
<g transform="matrix(1.3889 0 0 1.3889 202.15 -0.4)">
<path fill="rgb(0,0,0)" transform="translate(-99.1,-103.1907)" d="M 116.056 121.0467 L 116.056 85.3347 L 108.28 85.3347 L 108.28 87.7827 C 105.976 85.9827 102.952 84.7587 98.992 84.7587 C 90.208 84.7587 82.144 93.0387 82.144 103.1907 C 82.144 113.4147 88.336 121.6227 97.048 121.6227 C 101.944 121.6227 105.616 117.4467 108.28 113.0547 L 108.28 121.0467 Z M 89.488 102.1827 C 89.488 92.1027 93.664 86.4867 99.856 86.4867 C 103.456 86.4867 106.264 87.7827 108.28 89.9427 L 108.28 111.4707 C 106.12 114.5667 103.096 116.5107 99.352 116.5107 C 93.16 116.5107 89.488 111.9027 89.488 102.1827 Z"/>
</g>
</g>
</svg>
